<svg width="25" height="20" viewBox="0 0 25 20" fill="none" xmlns="http://www.w3.org/2000/svg">
<path d="M2.07385 5.00001H22.3815M10.1969 9.16667V13.3333M14.2585 9.16667V13.3333M4.10462 5.00001H20.3508L18.7465 16.85C18.6915 17.2578 18.4551 17.6347 18.0827 17.9083C17.7102 18.182 17.2278 18.3334 16.7279 18.3333H7.72751C7.22757 18.3334 6.74519 18.182 6.37273 17.9083C6.00028 17.6347 5.76392 17.2578 5.70893 16.85L4.10462 5.00001ZM7.50108 2.62251C7.66532 2.33664 7.92522 2.095 8.25044 1.92576C8.57567 1.75653 8.95282 1.66667 9.33791 1.66667H15.1175C15.5027 1.66651 15.8801 1.75629 16.2055 1.92554C16.531 2.09479 16.791 2.33652 16.9553 2.62251L18.32 5.00001H6.13539L7.50108 2.62251V2.62251Z" stroke="black" stroke-width="1.66667" stroke-linecap="round" stroke-linejoin="round"/>
</svg>
