<svg width="35" height="32" viewBox="0 0 35 32" fill="none" xmlns="http://www.w3.org/2000/svg">
<rect width="35" height="32" fill="#1E1E1E"/>
<g id="Detail Product">
<g clip-path="url(#clip0_0_1)">
<rect x="-86" y="-528" width="411" height="731" rx="5" fill="#E4E4E6"/>
<g id="Group 6">
<g id="button">
<rect id="Rectangle 6" x="-44" y="-4" width="123" height="40" rx="15" fill="#D9D9D9"/>
</g>
<g id="akar-icons:cart">
<g id="Group">
<path id="Vector" d="M7.77716 9.33333H26.8683C27.2551 9.33334 27.6376 9.41142 27.9912 9.56254C28.3448 9.71365 28.6616 9.93444 28.9211 10.2107C29.1807 10.4869 29.3773 10.8125 29.4982 11.1664C29.6191 11.5203 29.6617 11.8946 29.6232 12.2653L28.7926 20.2653C28.7243 20.9233 28.4045 21.5334 27.8954 21.9772C27.3863 22.4209 26.7242 22.6666 26.0376 22.6667H12.8164C12.1761 22.6669 11.5555 22.4534 11.0602 22.0625C10.565 21.6716 10.2257 21.1274 10.1002 20.5227L7.77716 9.33333Z" stroke="black" stroke-width="1.66667" stroke-linejoin="round"/>
<path id="Vector_2" d="M7.77715 9.33333L6.65577 5.00933C6.58078 4.721 6.4079 4.46508 6.16459 4.28221C5.92129 4.09934 5.62151 4.00001 5.31289 4H3.6239M11.9304 28H14.6992M23.0057 28H25.7746" stroke="black" stroke-width="1.66667" stroke-linecap="round" stroke-linejoin="round"/>
</g>
</g>
</g>
</g>
</g>
<defs>
<clipPath id="clip0_0_1">
<rect x="-86" y="-528" width="411" height="731" rx="5" fill="white"/>
</clipPath>
</defs>
</svg>
