<svg width="24" height="13" viewBox="0 0 24 13" fill="none" xmlns="http://www.w3.org/2000/svg">
<g id="akar-icons:cart">
<g id="Group">
<path id="Vector" d="M5.28955 4.12784H18.3755C18.6406 4.12784 18.9028 4.15553 19.1452 4.2091C19.3875 4.26268 19.6047 4.34097 19.7826 4.43891C19.9605 4.53685 20.0953 4.65228 20.1781 4.77775C20.261 4.90322 20.2902 5.03595 20.2638 5.16739L19.6945 8.00383C19.6477 8.23713 19.4285 8.45344 19.0795 8.61077C18.7306 8.7681 18.2767 8.85522 17.8061 8.85523H8.7437C8.30479 8.85532 7.87938 8.77961 7.53991 8.64101C7.20044 8.50241 6.9679 8.30948 6.88187 8.09507L5.28955 4.12784Z" stroke="black" stroke-width="1.66667" stroke-linejoin="round"/>
<path id="Vector_2" d="M5.28957 4.12783L4.52093 2.59474C4.46952 2.49251 4.35102 2.40177 4.18425 2.33694C4.01748 2.2721 3.812 2.23688 3.60046 2.23688H2.44275M8.1364 10.7462H10.0343M15.7279 10.7462H17.6258" stroke="black" stroke-width="1.66667" stroke-linecap="round" stroke-linejoin="round"/>
</g>
</g>
</svg>
