<svg width="25" height="25" viewBox="0 0 25 25" fill="none" xmlns="http://www.w3.org/2000/svg">
<rect width="25" height="25" rx="12.5" fill="url(#paint0_linear_11_488)"/>
<path d="M10.4195 12.532C10.4195 11.3805 11.3525 10.4467 12.5038 10.4467C13.655 10.4467 14.5885 11.3805 14.5885 12.532C14.5885 13.6836 13.655 14.6174 12.5038 14.6174C11.3525 14.6174 10.4195 13.6836 10.4195 12.532ZM9.29252 12.532C9.29252 14.3061 10.7302 15.7442 12.5038 15.7442C14.2773 15.7442 15.715 14.3061 15.715 12.532C15.715 10.758 14.2773 9.31989 12.5038 9.31989C10.7302 9.31989 9.29252 10.758 9.29252 12.532ZM15.0917 9.19253C15.0916 9.341 15.1355 9.48615 15.218 9.60963C15.3004 9.73311 15.4175 9.82937 15.5546 9.88624C15.6917 9.94311 15.8426 9.95804 15.9882 9.92913C16.1338 9.90022 16.2675 9.82878 16.3725 9.72384C16.4775 9.6189 16.5491 9.48518 16.5781 9.33957C16.6071 9.19397 16.5923 9.04303 16.5355 8.90584C16.4788 8.76865 16.3827 8.65137 16.2593 8.56884C16.1359 8.48631 15.9908 8.44222 15.8424 8.44216H15.8421C15.6432 8.44226 15.4524 8.52133 15.3117 8.66202C15.171 8.80272 15.0918 8.99352 15.0917 9.19253ZM9.97724 17.6239C9.36752 17.5961 9.03612 17.4946 8.81589 17.4087C8.52391 17.295 8.31559 17.1596 8.09656 16.9408C7.87753 16.722 7.74194 16.5138 7.62878 16.2218C7.54293 16.0016 7.44136 15.67 7.41365 15.0601C7.38333 14.4007 7.37728 14.2026 7.37728 12.5321C7.37728 10.8616 7.38383 10.664 7.41365 10.0041C7.44141 9.39421 7.54373 9.06326 7.62878 8.84242C7.74244 8.55036 7.87783 8.34197 8.09656 8.12288C8.31529 7.90378 8.52341 7.76816 8.81589 7.65496C9.03602 7.56909 9.36752 7.4675 9.97724 7.43977C10.6364 7.40945 10.8344 7.40339 12.5038 7.40339C14.1731 7.40339 14.3713 7.40995 15.031 7.43977C15.6407 7.46755 15.9716 7.56989 16.1924 7.65496C16.4843 7.76816 16.6927 7.90408 16.9117 8.12288C17.1307 8.34167 17.2658 8.55036 17.3795 8.84242C17.4653 9.06261 17.5669 9.39421 17.5946 10.0041C17.6249 10.664 17.631 10.8616 17.631 12.5321C17.631 14.2026 17.6249 14.4002 17.5946 15.0601C17.5668 15.67 17.4648 16.0015 17.3795 16.2218C17.2658 16.5138 17.1304 16.7222 16.9117 16.9408C16.693 17.1594 16.4843 17.295 16.1924 17.4087C15.9722 17.4946 15.6407 17.5962 15.031 17.6239C14.3718 17.6542 14.1738 17.6603 12.5038 17.6603C10.8337 17.6603 10.6362 17.6542 9.97724 17.6239ZM9.92545 6.31437C9.2597 6.3447 8.80478 6.45029 8.40749 6.60493C7.99605 6.76462 7.64774 6.97886 7.29968 7.32647C6.95162 7.67408 6.73799 8.02304 6.57835 8.43461C6.42375 8.83226 6.31819 9.28706 6.28787 9.953C6.25705 10.62 6.25 10.8332 6.25 12.532C6.25 14.2309 6.25705 14.4441 6.28787 15.1111C6.31819 15.7771 6.42375 16.2318 6.57835 16.6295C6.73799 17.0408 6.95167 17.3902 7.29968 17.7376C7.64769 18.0851 7.99605 18.299 8.40749 18.4592C8.80553 18.6138 9.2597 18.7194 9.92545 18.7497C10.5926 18.78 10.8054 18.7876 12.5038 18.7876C14.2021 18.7876 14.4152 18.7805 15.082 18.7497C15.7478 18.7194 16.2025 18.6138 16.6 18.4592C17.0112 18.299 17.3598 18.0852 17.7078 17.7376C18.0559 17.39 18.2691 17.0408 18.4292 16.6295C18.5837 16.2318 18.6898 15.777 18.7196 15.1111C18.7499 14.4436 18.757 14.2309 18.757 12.532C18.757 10.8332 18.7499 10.62 18.7196 9.953C18.6893 9.28701 18.5837 8.83201 18.4292 8.43461C18.2691 8.02329 18.0553 7.67463 17.7078 7.32647C17.3603 6.97831 17.0112 6.76462 16.6005 6.60493C16.2025 6.45029 15.7478 6.3442 15.0825 6.31437C14.4157 6.28405 14.2026 6.27649 12.5043 6.27649C10.8059 6.27649 10.5926 6.28355 9.92545 6.31437Z" fill="white"/>
<defs>
<linearGradient id="paint0_linear_11_488" x1="24.5195" y1="25" x2="-0.480499" y2="-6.7293e-07" gradientUnits="userSpaceOnUse">
<stop stop-color="#FBE18A"/>
<stop offset="0.21" stop-color="#FCBB45"/>
<stop offset="0.38" stop-color="#F75274"/>
<stop offset="0.52" stop-color="#D53692"/>
<stop offset="0.74" stop-color="#8F39CE"/>
<stop offset="1" stop-color="#5B4FE9"/>
</linearGradient>
</defs>
</svg>
