<svg width="35" height="25" viewBox="0 0 35 25" fill="none" xmlns="http://www.w3.org/2000/svg">
<g id="Interface / Shopping_Bag_02">
<path id="Vector" d="M11.4584 8.33332H9.70715C7.84571 8.33332 6.91577 8.33332 6.25371 8.60951C5.67272 8.85188 5.22613 9.23473 4.99292 9.69136C4.72734 10.2114 4.88021 10.8785 5.18584 12.2121L5.18648 12.2147L6.52329 18.048C6.75006 19.0375 6.86419 19.5325 7.20369 19.9038C7.50295 20.2311 7.92303 20.4898 8.41613 20.6507C8.97552 20.8332 9.66494 20.8333 11.0443 20.8333H23.3311C24.7105 20.8333 25.3994 20.8332 25.9588 20.6507C26.4519 20.4898 26.8723 20.2311 27.1716 19.9038C27.5111 19.5325 27.6246 19.0375 27.8514 18.048L29.1882 12.2147L29.1895 12.2106C29.4949 10.8779 29.6477 10.2112 29.3822 9.69136C29.149 9.23473 28.7035 8.85188 28.1225 8.60951C27.4604 8.33332 26.529 8.33332 24.6675 8.33332H22.9167M11.4584 8.33332H22.9167M11.4584 8.33332C11.4584 6.03214 14.0234 4.16666 17.1875 4.16666C20.3517 4.16666 22.9167 6.03214 22.9167 8.33332" stroke="#140101" stroke-width="2" stroke-linecap="round" stroke-linejoin="round"/>
</g>
</svg>
